<?xml version="1.0" ?><svg id="object" viewBox="0 0 32 32" xmlns="http://www.w3.org/2000/svg"><title/><path d="M16,1A15,15,0,1,0,31,16,15,15,0,0,0,16,1ZM26.71,21l-2.86,2.86a1,1,0,0,1-.71.29,1,1,0,0,1-.7-.29,1,1,0,0,1,0-1.41l1.15-1.15h-3.3a1,1,0,0,1-.71-.3L16,17.41l-3.76,3.76a1,1,0,0,1-.7.29H6a1,1,0,0,1,0-2h5.12L14.59,16l-3.47-3.46H6a1,1,0,0,1,0-2h5.54a1,1,0,0,1,.7.29L16,14.59,19.58,11a1,1,0,0,1,.71-.3h3.3L22.44,9.56a1,1,0,0,1,0-1.41,1,1,0,0,1,1.41,0L26.71,11a1,1,0,0,1,.29.7,1,1,0,0,1-.08.39,1,1,0,0,1-.21.32l-2.86,2.86a1,1,0,0,1-.71.29,1,1,0,0,1-.7-.29,1,1,0,0,1,0-1.42l1.15-1.15H20.7L17.41,16l3.29,3.29h2.89l-1.15-1.15a1,1,0,0,1,1.41-1.42l2.86,2.86a1,1,0,0,1,.21.32,1,1,0,0,1,.08.39,1,1,0,0,1-.29.7Z"/></svg>